HIERARCHY
ROOT mixamorig:Hips
{
	OFFSET 0.000000 201.639420 0.000000
	CHANNELS 6 Xposition Yposition Zposition Xrotation Yrotation Zrotation
	JOINT mixamorig:Spine
	{
		OFFSET 0.006200 19.524994 -2.481800
		CHANNELS 3 Xrotation Yrotation Zrotation
		JOINT mixamorig:Spine1
		{
			OFFSET -0.000900 22.835007 -2.825400
			CHANNELS 3 Xrotation Yrotation Zrotation
			JOINT mixamorig:Spine2
			{
				OFFSET -0.020600 26.552490 -3.193300
				CHANNELS 3 Xrotation Yrotation Zrotation
				JOINT mixamorig:Neck
				{
					OFFSET -0.060000 30.701813 1.352200
					CHANNELS 3 Xrotation Yrotation Zrotation
					JOINT mixamorig:Head
					{
						OFFSET -0.087200 22.547607 3.670900
						CHANNELS 3 Xrotation Yrotation Zrotation
						JOINT mixamorig:HeadTop_End
						{
							OFFSET -0.830600 40.355194 7.893500
							CHANNELS 3 Xrotation Yrotation Zrotation
							End Site
							{
								OFFSET 0.000000 30.592346 0.000000
							}
						}
						JOINT mixamorig:RightEye
						{
							OFFSET -6.302100 18.118591 16.197100
							CHANNELS 3 Xrotation Yrotation Zrotation
							End Site
							{
								OFFSET 0.000000 30.592346 0.000000
							}
						}
						JOINT mixamorig:LeftEye
						{
							OFFSET 6.741500 18.382690 16.401899
							CHANNELS 3 Xrotation Yrotation Zrotation
							End Site
							{
								OFFSET 0.000000 30.592346 0.000000
							}
						}
					}
				}
				JOINT mixamorig:LeftShoulder
				{
					OFFSET 11.924900 18.230499 1.425400
					CHANNELS 3 Xrotation Yrotation Zrotation
					JOINT mixamorig:LeftArm
					{
						OFFSET 25.435989 -0.697632 -5.229300
						CHANNELS 3 Xrotation Yrotation Zrotation
						JOINT mixamorig:LeftForeArm
						{
							OFFSET 54.684776 0.000000 0.000000
							CHANNELS 3 Xrotation Yrotation Zrotation
							JOINT mixamorig:LeftHand
							{
								OFFSET 55.098175 0.000000 0.000000
								CHANNELS 3 Xrotation Yrotation Zrotation
								JOINT mixamorig:LeftHandMiddle1
								{
									OFFSET 23.369751 0.000000 0.000000
									CHANNELS 3 Xrotation Yrotation Zrotation
									JOINT mixamorig:LeftHandMiddle2
									{
										OFFSET 6.378677 0.000000 0.000000
										CHANNELS 3 Xrotation Yrotation Zrotation
										JOINT mixamorig:LeftHandMiddle3
										{
											OFFSET 6.148331 0.000000 0.000000
											CHANNELS 3 Xrotation Yrotation Zrotation
											JOINT mixamorig:LeftHandMiddle4
											{
												OFFSET 6.582504 0.000000 0.000000
												CHANNELS 3 Xrotation Yrotation Zrotation
												End Site
												{
													OFFSET -1.168900 6.395691 1.028606
												}
											}
										}
									}
								}
								JOINT mixamorig:LeftHandThumb1
								{
									OFFSET 7.235672 -3.848206 5.434273
									CHANNELS 3 Xrotation Yrotation Zrotation
									JOINT mixamorig:LeftHandThumb2
									{
										OFFSET 6.568451 -3.792297 3.792300
										CHANNELS 3 Xrotation Yrotation Zrotation
										JOINT mixamorig:LeftHandThumb3
										{
											OFFSET 6.063080 -3.500519 3.500518
											CHANNELS 3 Xrotation Yrotation Zrotation
											JOINT mixamorig:LeftHandThumb4
											{
												OFFSET 4.793182 -2.767334 2.767349
												CHANNELS 3 Xrotation Yrotation Zrotation
												End Site
												{
													OFFSET 0.101639 6.054260 1.275483
												}
											}
										}
									}
								}
								JOINT mixamorig:LeftHandIndex1
								{
									OFFSET 23.101074 -0.309540 4.992809
									CHANNELS 3 Xrotation Yrotation Zrotation
									JOINT mixamorig:LeftHandIndex2
									{
										OFFSET 6.226883 0.000000 0.000000
										CHANNELS 3 Xrotation Yrotation Zrotation
										JOINT mixamorig:LeftHandIndex3
										{
											OFFSET 6.094330 0.000000 0.000000
											CHANNELS 3 Xrotation Yrotation Zrotation
											JOINT mixamorig:LeftHandIndex4
											{
												OFFSET 5.482605 0.000000 0.000000
												CHANNELS 3 Xrotation Yrotation Zrotation
												End Site
												{
													OFFSET -1.427902 5.233032 0.797164
												}
											}
										}
									}
								}
								JOINT mixamorig:LeftHandRing1
								{
									OFFSET 22.299240 0.021149 -3.964172
									CHANNELS 3 Xrotation Yrotation Zrotation
									JOINT mixamorig:LeftHandRing2
									{
										OFFSET 6.321869 0.000000 0.000000
										CHANNELS 3 Xrotation Yrotation Zrotation
										JOINT mixamorig:LeftHandRing3
										{
											OFFSET 5.899796 0.000000 0.000000
											CHANNELS 3 Xrotation Yrotation Zrotation
											JOINT mixamorig:LeftHandRing4
											{
												OFFSET 6.517899 0.000000 0.000000
												CHANNELS 3 Xrotation Yrotation Zrotation
												End Site
												{
													OFFSET -1.637299 6.232208 0.980890
												}
											}
										}
									}
								}
								JOINT mixamorig:LeftHandPinky1
								{
									OFFSET 20.463791 -0.302338 -8.562233
									CHANNELS 3 Xrotation Yrotation Zrotation
									JOINT mixamorig:LeftHandPinky2
									{
										OFFSET 6.908646 0.000000 0.000000
										CHANNELS 3 Xrotation Yrotation Zrotation
										JOINT mixamorig:LeftHandPinky3
										{
											OFFSET 4.622849 0.000000 0.000000
											CHANNELS 3 Xrotation Yrotation Zrotation
											JOINT mixamorig:LeftHandPinky4
											{
												OFFSET 5.216080 0.000000 0.000000
												CHANNELS 3 Xrotation Yrotation Zrotation
												End Site
												{
													OFFSET -0.606308 5.116241 0.814926
												}
											}
										}
									}
								}
							}
						}
					}
				}
				JOINT mixamorig:RightShoulder
				{
					OFFSET -12.001300 18.284088 1.348900
					CHANNELS 3 Xrotation Yrotation Zrotation
					JOINT mixamorig:RightArm
					{
						OFFSET -25.308500 -0.751312 -5.164599
						CHANNELS 3 Xrotation Yrotation Zrotation
						JOINT mixamorig:RightForeArm
						{
							OFFSET -54.684429 0.000000 0.000000
							CHANNELS 3 Xrotation Yrotation Zrotation
							JOINT mixamorig:RightHand
							{
								OFFSET -55.150291 0.000000 0.000000
								CHANNELS 3 Xrotation Yrotation Zrotation
								JOINT mixamorig:RightHandMiddle1
								{
									OFFSET -23.317566 0.000000 0.000000
									CHANNELS 3 Xrotation Yrotation Zrotation
									JOINT mixamorig:RightHandMiddle2
									{
										OFFSET -6.378403 0.000000 0.000000
										CHANNELS 3 Xrotation Yrotation Zrotation
										JOINT mixamorig:RightHandMiddle3
										{
											OFFSET -6.148193 0.000000 0.000000
											CHANNELS 3 Xrotation Yrotation Zrotation
											JOINT mixamorig:RightHandMiddle4
											{
												OFFSET -6.583389 0.000000 0.000000
												CHANNELS 3 Xrotation Yrotation Zrotation
												End Site
												{
													OFFSET 1.171692 6.395905 1.029786
												}
											}
										}
									}
								}
								JOINT mixamorig:RightHandThumb1
								{
									OFFSET -7.190521 -3.860474 5.435846
									CHANNELS 3 Xrotation Yrotation Zrotation
									JOINT mixamorig:RightHandThumb2
									{
										OFFSET -6.567429 -3.791718 3.791708
										CHANNELS 3 Xrotation Yrotation Zrotation
										JOINT mixamorig:RightHandThumb3
										{
											OFFSET -6.062469 -3.500153 3.500166
											CHANNELS 3 Xrotation Yrotation Zrotation
											JOINT mixamorig:RightHandThumb4
											{
												OFFSET -4.792618 -2.767029 2.767022
												CHANNELS 3 Xrotation Yrotation Zrotation
												End Site
												{
													OFFSET -0.100327 6.053253 1.276754
												}
											}
										}
									}
								}
								JOINT mixamorig:RightHandIndex1
								{
									OFFSET -23.048981 -0.310791 4.992554
									CHANNELS 3 Xrotation Yrotation Zrotation
									JOINT mixamorig:RightHandIndex2
									{
										OFFSET -6.227539 0.000000 0.000000
										CHANNELS 3 Xrotation Yrotation Zrotation
										JOINT mixamorig:RightHandIndex3
										{
											OFFSET -6.095047 0.000000 0.000000
											CHANNELS 3 Xrotation Yrotation Zrotation
											JOINT mixamorig:RightHandIndex4
											{
												OFFSET -5.484772 0.000000 0.000000
												CHANNELS 3 Xrotation Yrotation Zrotation
												End Site
												{
													OFFSET 1.420593 5.237305 0.797056
												}
											}
										}
									}
								}
								JOINT mixamorig:RightHandRing1
								{
									OFFSET -22.246323 0.020569 -3.963762
									CHANNELS 3 Xrotation Yrotation Zrotation
									JOINT mixamorig:RightHandRing2
									{
										OFFSET -6.322128 0.000000 0.000000
										CHANNELS 3 Xrotation Yrotation Zrotation
										JOINT mixamorig:RightHandRing3
										{
											OFFSET -5.900024 0.000000 0.000000
											CHANNELS 3 Xrotation Yrotation Zrotation
											JOINT mixamorig:RightHandRing4
											{
												OFFSET -6.518356 0.000000 0.000000
												CHANNELS 3 Xrotation Yrotation Zrotation
												End Site
												{
													OFFSET 1.636398 6.232697 0.982186
												}
											}
										}
									}
								}
								JOINT mixamorig:RightHandPinky1
								{
									OFFSET -20.411011 -0.303314 -8.561701
									CHANNELS 3 Xrotation Yrotation Zrotation
									JOINT mixamorig:RightHandPinky2
									{
										OFFSET -6.907349 0.000000 0.000000
										CHANNELS 3 Xrotation Yrotation Zrotation
										JOINT mixamorig:RightHandPinky3
										{
											OFFSET -4.623840 0.000000 0.000000
											CHANNELS 3 Xrotation Yrotation Zrotation
											JOINT mixamorig:RightHandPinky4
											{
												OFFSET -5.218353 0.000000 0.000000
												CHANNELS 3 Xrotation Yrotation Zrotation
												End Site
												{
													OFFSET 0.602097 5.118835 0.816273
												}
											}
										}
									}
								}
							}
						}
					}
				}
			}
		}
	}
	JOINT mixamorig:LeftUpLeg
	{
		OFFSET 18.168400 -13.561905 -0.039000
		CHANNELS 3 Xrotation Yrotation Zrotation
		JOINT mixamorig:LeftLeg
		{
			OFFSET 0.577358 -80.825211 -3.695000
			CHANNELS 3 Xrotation Yrotation Zrotation
			JOINT mixamorig:LeftFoot
			{
				OFFSET -0.577356 -83.370262 -6.520700
				CHANNELS 3 Xrotation Yrotation Zrotation
				JOINT mixamorig:LeftToeBase
				{
					OFFSET 0.750401 -20.798306 25.135401
					CHANNELS 3 Xrotation Yrotation Zrotation
					JOINT mixamorig:LeftToe_End
					{
						OFFSET -0.000500 0.001200 19.917799
						CHANNELS 3 Xrotation Yrotation Zrotation
						End Site
						{
							OFFSET 0.000000 19.917805 0.000000
						}
					}
				}
			}
		}
	}
	JOINT mixamorig:RightUpLeg
	{
		OFFSET -18.162500 -13.585098 -0.041000
		CHANNELS 3 Xrotation Yrotation Zrotation
		JOINT mixamorig:RightLeg
		{
			OFFSET -0.595024 -80.945297 -3.631900
			CHANNELS 3 Xrotation Yrotation Zrotation
			JOINT mixamorig:RightFoot
			{
				OFFSET 0.595024 -83.218193 -6.561200
				CHANNELS 3 Xrotation Yrotation Zrotation
				JOINT mixamorig:RightToeBase
				{
					OFFSET -0.753601 -20.807106 25.115000
					CHANNELS 3 Xrotation Yrotation Zrotation
					JOINT mixamorig:RightToe_End
					{
						OFFSET 0.000299 0.001700 19.918200
						CHANNELS 3 Xrotation Yrotation Zrotation
						End Site
						{
							OFFSET 0.000000 19.918203 0.000000
						}
					}
				}
			}
		}
	}
}
MOTION
Frames: 4
Frame Time: 0.033333
7.111745 201.968994 -19.329781 35.324051 -1.787497 -0.476245 -0.955734 1.462866 0.943538 2.736221 -1.949358 1.928424 0.108666 1.868267 -0.337480 -5.489289 1.229956 -2.358006 -20.541184 -3.643922 -2.113629 0.000001 -0.000000 -0.000000 0.000001 -0.000000 -0.000000 0.000001 -0.000000 -0.000000 1.307670 -10.012219 -3.834740 -36.308343 -17.848217 -9.016230 0.000163 -83.194539 0.000145 -11.794233 -3.373135 8.923605 1.207006 7.286008 -15.268803 0.005872 0.262633 -2.563446 0.001505 0.133270 -1.300645 -0.000001 -0.000000 0.000002 -11.571103 -4.563713 5.294203 13.901913 40.676495 -4.700225 -9.515124 -7.928970 13.466872 0.000001 0.000001 0.000001 0.780187 6.596687 -10.867067 0.002244 0.162282 -1.583881 0.000182 0.045929 -0.448241 0.000001 -0.000002 -0.000003 0.390008 4.288407 -18.465087 0.147672 1.308374 -12.877896 0.000007 -0.000034 0.000302 -0.000000 0.000000 0.000004 -1.122774 1.499614 -27.535906 0.500924 2.372172 -23.844021 0.003315 0.197333 -1.925968 0.000001 0.000001 0.000003 -0.135493 -5.050589 -0.032894 -40.244926 37.083539 33.136857 0.000204 86.013433 -0.000219 -23.657771 5.333025 0.353064 1.890448 -8.657643 17.894160 0.047883 -0.666867 8.214458 0.015936 -0.385280 4.735029 0.000003 0.000001 -0.000004 -12.672426 2.175049 -2.849730 23.304648 -43.785730 5.005291 -3.061562 -11.473046 -15.147331 -0.000002 0.000001 0.000001 1.352023 -6.349086 22.424718 0.000009 -0.003493 0.042935 0.002302 -0.146182 1.794898 -0.000000 -0.000000 -0.000003 1.904073 -7.577106 22.965790 0.000661 -0.078306 0.961391 0.005769 -0.232013 2.849399 -0.000001 0.000004 0.000002 1.251297 -5.576483 30.844086 0.148755 -1.168879 14.505204 0.077534 -0.847117 10.457610 0.000001 -0.000006 0.000003 -66.407204 -11.598010 -7.478280 83.028142 4.277636 -9.113020 -4.653903 -7.493837 -4.039321 -0.000860 -0.000009 -0.000007 0.000001 -0.000001 -0.000001 -78.414253 17.261930 -23.175049 60.044944 -7.938246 4.442891 4.102426 -5.409193 -2.540982 -0.000002 0.000002 0.000001 -0.000001 0.000000 -0.000000 
6.983900 201.999634 -19.409981 35.288131 -1.734857 -0.447339 -0.930101 1.360956 0.909996 2.787289 -2.133758 1.914704 0.156271 1.682842 -0.352355 -5.505424 1.323227 -2.322041 -20.434722 -3.498926 -1.973012 -0.000000 0.000000 0.000000 -0.000000 0.000000 0.000000 -0.000000 0.000000 0.000000 1.307675 -10.012220 -3.834741 -36.322536 -18.216717 -9.176705 0.000122 -84.191446 0.000095 -12.058083 -4.430470 9.110043 1.178801 7.259095 -14.939780 0.004266 0.223860 -2.185162 0.001508 0.133273 -1.300642 -0.000002 0.000003 0.000003 -12.068285 -5.043754 6.305293 14.187143 41.196573 -4.792459 -9.515118 -7.928972 13.466872 0.000004 0.000001 0.000001 0.746701 6.555920 -10.412270 0.000749 0.094109 -0.918348 0.000219 0.049707 -0.485010 -0.000000 0.000001 0.000001 0.385674 4.275966 -18.336421 0.146541 1.303476 -12.828740 0.000006 -0.000038 0.000299 0.000000 -0.000001 -0.000002 -1.127600 1.537787 -27.847955 0.524068 2.423824 -24.397174 0.003319 0.197335 -1.925968 0.000002 -0.000000 -0.000003 -0.135490 -5.050589 -0.032894 -40.422467 38.038970 33.796906 0.000280 86.435928 -0.000165 -22.517365 5.153253 0.081320 1.986546 -8.627615 19.017536 0.047886 -0.666871 8.214451 0.015932 -0.385275 4.735027 0.000001 0.000000 -0.000000 -12.672310 2.174941 -2.849985 23.236870 -43.587040 4.982118 -3.061561 -11.473032 -15.147328 -0.000002 -0.000002 -0.000000 1.445792 -6.424301 23.732660 0.000063 -0.023276 0.285535 0.002302 -0.146184 1.794897 0.000001 0.000001 0.000002 2.002503 -7.627587 24.026357 0.000658 -0.078305 0.961397 0.005766 -0.232008 2.849402 0.000005 -0.000001 -0.000003 1.161322 -5.433761 30.612095 0.156812 -1.199595 14.895029 0.081476 -0.868193 10.720815 0.000000 -0.000006 0.000002 -65.083841 -11.912191 -6.533911 83.701680 3.895335 -9.163098 -3.897852 -6.642676 -3.131445 -0.000855 -0.000009 -0.000006 -0.000001 0.000000 -0.000001 -78.699789 17.124763 -22.454368 59.540665 -8.194037 4.443740 3.959270 -5.772006 -2.300343 -0.000001 0.000005 0.000003 0.000001 -0.000002 0.000001 
6.849165 202.059296 -19.485046 35.254206 -1.683385 -0.418035 -0.897236 1.256628 0.873654 2.852545 -2.320423 1.901634 0.217794 1.494801 -0.367034 -5.496618 1.415730 -2.282265 -20.319456 -3.354557 -1.827652 0.000001 0.000000 0.000000 0.000001 0.000000 0.000000 0.000001 0.000000 0.000000 1.307675 -10.012219 -3.834739 -36.359850 -18.636695 -9.348831 0.000128 -85.203536 0.000155 -12.208039 -5.439584 9.317079 1.160608 7.240278 -14.731936 0.003533 0.203681 -1.988018 0.001507 0.133274 -1.300642 0.000002 -0.000001 0.000000 -12.507789 -5.559473 7.361228 14.485580 41.716948 -4.901459 -9.515119 -7.928973 13.466872 0.000004 -0.000000 -0.000000 0.719591 6.521816 -10.042697 0.000072 0.030341 -0.296208 0.000237 0.053508 -0.522200 -0.000002 0.000002 -0.000001 0.383686 4.270186 -18.277252 0.140309 1.275845 -12.552231 0.000010 -0.000038 0.000301 0.000002 0.000002 -0.000001 -1.128405 1.569749 -28.070510 0.533091 2.443590 -24.609515 0.003318 0.197339 -1.925965 0.000000 -0.000002 -0.000002 -0.135493 -5.050590 -0.032894 -40.574046 38.899884 34.377995 0.000409 86.906302 -0.000326 -20.713682 5.074063 -0.159376 2.077351 -8.594137 20.116876 0.047885 -0.666872 8.214453 0.015934 -0.385279 4.735034 0.000001 0.000001 0.000001 -12.673584 2.175847 -2.847373 23.197341 -43.470684 4.968744 -3.061571 -11.473045 -15.147314 -0.000002 -0.000003 -0.000000 1.537985 -6.494837 24.996001 0.000199 -0.043625 0.535517 0.002301 -0.146185 1.794897 0.000002 0.000001 0.000000 2.096978 -7.673839 25.035124 0.000661 -0.078307 0.961394 0.005770 -0.232011 2.849399 -0.000003 0.000001 -0.000002 1.094381 -5.327922 30.364190 0.162640 -1.221199 15.169835 0.085582 -0.889659 10.989358 0.000002 0.000003 -0.000001 -63.780641 -12.163710 -5.576846 84.321615 3.665161 -9.213303 -3.006576 -5.809881 -2.502353 -0.000865 -0.000008 -0.000007 0.000005 0.000000 0.000000 -78.967888 16.944747 -21.673078 59.075863 -8.413938 4.444124 3.789746 -6.111400 -2.060805 -0.000001 0.000003 0.000001 -0.000000 0.000001 0.000001 
6.708666 202.143860 -19.552849 35.222476 -1.634676 -0.388966 -0.858272 1.153253 0.834628 2.929784 -2.505284 1.888130 0.291117 1.308229 -0.382535 -5.507509 1.508711 -2.241907 -20.288920 -3.210161 -1.684772 -0.000000 0.000000 0.000000 -0.000000 0.000000 0.000000 -0.000000 0.000000 0.000000 1.307672 -10.012219 -3.834739 -36.417209 -19.113601 -9.532259 0.000071 -86.189570 0.000085 -12.198709 -6.727359 9.481201 1.154168 7.230643 -14.670884 0.003439 0.200857 -1.960501 0.001507 0.133272 -1.300643 -0.000003 -0.000001 0.000000 -12.884765 -6.088400 8.416078 14.797755 42.236227 -5.028290 -9.515124 -7.928972 13.466872 -0.000002 0.000001 0.000001 0.699315 6.495202 -9.767014 -0.000001 0.000011 -0.000063 0.000278 0.057344 -0.559617 -0.000002 0.000001 -0.000002 0.384593 4.272863 -18.305891 0.127984 1.219106 -11.985495 0.000007 -0.000036 0.000305 -0.000000 -0.000002 -0.000002 -1.117489 1.595315 -28.102468 0.519061 2.412755 -24.278360 0.003317 0.197332 -1.925968 -0.000002 -0.000003 0.000004 -0.135493 -5.050590 -0.032894 -40.676611 39.621005 34.850197 0.000192 87.413840 -0.000012 -18.605855 5.068220 -0.367157 2.161558 -8.557173 21.179045 0.047882 -0.666871 8.214457 0.015932 -0.385271 4.735030 0.000001 -0.000000 0.000001 -12.704249 2.197395 -2.784513 23.192539 -43.456549 4.967128 -3.061577 -11.473035 -15.147321 -0.000001 0.000002 -0.000000 1.626746 -6.559800 26.192799 0.000461 -0.064916 0.796805 0.002307 -0.146184 1.794896 0.000004 -0.000003 -0.000001 2.200662 -7.722315 26.132387 0.000661 -0.078308 0.961390 0.005770 -0.232015 2.849398 0.000002 -0.000000 -0.000001 1.055877 -5.269128 30.104520 0.165791 -1.232862 15.318349 0.088993 -0.907034 11.206611 0.000002 0.000006 -0.000002 -62.586724 -12.354326 -4.558966 84.888214 3.539419 -9.264770 -2.035690 -5.015768 -2.002662 -0.000862 -0.000008 -0.000006 0.000001 -0.000000 0.000000 -79.227080 16.707876 -20.825155 58.673593 -8.582106 4.443898 3.585362 -6.407905 -1.773554 -0.000004 0.000003 0.000003 0.000000 -0.000003 -0.000001 
